<?xml version="1.0" standalone="yes"?>
<svg height="25%"
    version="1.1"
    width="25%"
    xmlns="http://www.w3.org/2000/svg">
    <g>
        <polygon
            fill="none"
            points="20.8,8 17,-3.8 13.2,8 0.7,8 10.8,15.3 6.9,27.2 17,19.8 27.1,27.2 23.2,15.3 33.3,8 " />
        <polygon
            fill="none"
            points="20.8,8 17,-3.8 13.2,8 0.7,8 10.8,15.3 6.9,27.2 17,19.8 27.1,27.2 23.2,15.3 33.3,8 " />
        <path
            d="M28.8,2.3c-0.2-0.2-0.5-0.1-0.8,0c0.6,0.2,0.9,0.6,1.3,0.9c-0.4,0-0.6-0.2-1-0.3c-0.1,0-0.3-0.1-0.4,0    c-0.6,0.4-1.3,0.5-1.9,1L25.9,4c-0.1,0-0.8-0.4-0.8-0.6C25,3.1,25,2.9,25.3,2.7c0.6-0.5,1.2-1.1,2-1.5c0.1,0,0.2,0,0.2-0.1    c0.1-0.4,0.4-0.6,0.9-0.6c0.4,0,0.7,0,1.1,0c-0.5-0.4-1.2-0.6-1.9-0.6H5.3c-1.9,0-3.5,1.6-3.5,3.5v17.9c0,1.1,0.5,2,1.2,2.7v0.3    l4.4,2.5c0.2-0.3,0.6-0.5,1.1-0.4c1.1,0,2.1,0,3.2-0.2c0.4-0.1,0.9-0.1,1.3,0c0.5,0.1,0.8,0,0.9-0.5c0.3-0.9,0.4-1.9,0.6-2.9    c0-0.2,0.1-0.4,0.2-0.5c0.1,0.7,0,1.4-0.2,2.1c-0.1,0.5-0.3,0.9-0.2,1.4c0.1,0.4-0.3,0.6-0.5,0.8c-0.6,0.4-1.2,0.8-1.9,1.1    c-0.6,0.3-1.1,0.5-1.7,0.9l6.1,3.5l13.4-7.7v-0.2c0.8-0.6,1.3-1.6,1.3-2.7V3.6c0-0.7-0.2-1.4-0.6-1.9c-0.4,0.2-0.8,0.4-1.2,0.7    C29.1,2.4,29,2.4,28.8,2.3z M23.9,23.8l-7-5.1l-7,5.1l2.7-8.3l-7-5.1h8.7L17,2.1l2.7,8.3h8.7l-7,5.1L23.9,23.8z"
            fill="#efcd58" />
    </g>
</svg>