<?xml version="1.0" standalone="yes"?>
<svg height="25%"
    version="1.1"
    width="25%"
    xmlns="http://www.w3.org/2000/svg">
    <g>
        <path d="M2.1 28.1h7.1V32H2.1z"></path>
        <path d="M9.1 7v-.7C8.6 1.5 5.6 0 5.6 0s-3 1.5-3.5 6.3V25.4h7V7z"></path>
    </g>
    <g>
        <path d="M12.5 28.1h7.1V32h-7.1z"></path>
        <path d="M19.5 7v-.7C19 1.5 16 0 16 0s-3 1.5-3.5 6.3V25.4h7V7z"></path>
    </g>
    <g>
        <path d="M22.9 28.1H30V32h-7.1z"></path>
        <path d="M29.9 7v-.7C29.4 1.5 26.4 0 26.4 0s-3 1.5-3.5 6.3V25.4h7V7z"></path>
    </g>
</svg>